<mxfile host="app.diagrams.net" modified="2023-09-21T16:04:12.063Z" agent="Mozilla/5.0 (Windows NT 10.0; Win64; x64; rv:109.0) Gecko/20100101 Firefox/117.0" version="21.7.2" etag="swUiH05d8dhFYqnwFZV5" type="github">
  <diagram name="PÃ¡gina-1" id="suyG-gGlGktdfs2UT93P">
    <mxGraphModel>
      <root>
        <mxCell id="0" />
        <mxCell id="1" parent="0" />
      </root>
    </mxGraphModel>
  </diagram>
</mxfile>
